Coordinates
version=1
nRows=18
nColumns=22
inDegrees=yes

Units are S.I. units (second, meters, Newtons, ...)
If the header above contains a line with 'inDegrees', this indicates whether rotational values are in degrees (yes) or radians (no).

endheader
time	pelvis_tilt	pelvis_list	pelvis_rotation	pelvis_tx	pelvis_ty	pelvis_tz	hip_flexion_r	hip_adduction_r	hip_rotation_r	knee_angle_r	ankle_angle_r	subtalar_angle_r	hip_flexion_l	hip_adduction_l	hip_rotation_l	knee_angle_l	ankle_angle_l	subtalar_angle_l	lumbar_extension	lumbar_bending	lumbar_rotation
      3.82000000	     -3.41618058	      1.20464427	   -363.68771057	      0.43952273	      0.93809293	     -0.60616185	     18.17128193	      1.81139239	     -3.54313442	    -70.14619701	     -8.70499343	      0.02222701	    202.51518714	   -178.81029066	   -167.81014698	    -28.44273070	     12.18878555	      9.34828884	     -1.11286767	     -1.39312740	    355.55833712
      3.83000000	     -3.28135648	      1.14895288	   -364.14169135	      0.44833414	      0.94008977	     -0.60555520	     19.59688800	      1.45499307	     -4.46269571	    -70.77326609	     -7.43860479	     -0.85986680	    201.35703910	   -178.56112696	   -168.23340715	    -27.81147632	     12.50331140	      9.18238885	     -1.26322194	     -1.32546344	    355.15659202
      3.84000000	     -3.17183349	      1.04208260	   -364.58923026	      0.45705073	      0.94204711	     -0.60473515	     20.96278240	      1.21089483	     -5.35945311	    -71.10234692	     -6.17254263	     -1.52147463	    200.20122664	   -178.24847959	   -168.67025686	    -27.12974546	     12.79707639	      9.04808759	     -1.38823620	     -1.20904922	    354.76174610
      3.85000000	     -3.08534281	      0.89658443	   -365.01973393	      0.46568366	      0.94395200	     -0.60374877	     22.26439718	      1.05120839	     -6.24994309	    -71.14699172	     -4.90754639	     -1.90957711	    199.04407389	   -177.89486775	   -169.09434159	    -26.39649702	     13.06278637	      8.95698279	     -1.49105783	     -1.05429465	    354.36815431
      3.86000000	     -3.03510935	      0.70334026	   -365.43580202	      0.47421643	      0.94575094	     -0.60261034	     23.51793723	      0.98245131	     -7.14262129	    -70.92510023	     -3.65665004	     -2.11676283	    197.92133253	   -177.48797702	   -169.53315765	    -25.65007172	     13.31814408	      8.87915205	     -1.56167957	     -0.84782769	    353.96769295
      3.87000000	     -3.00228234	      0.48886866	   -365.83257784	      0.48266156	      0.94745601	     -0.60136584	     24.70548150	      0.95801281	     -8.04268505	    -70.45524719	     -2.41835768	     -2.15296697	    196.80622166	   -177.06388551	   -169.96657267	    -24.87764244	     13.55205343	      8.81057519	     -1.62032480	     -0.61670403	    353.55714025
      3.88000000	     -2.98196312	      0.26275997	   -366.21446579	      0.49101117	      0.94905126	     -0.60003265	     25.82691275	      0.96125707	     -8.93652062	    -69.75890859	     -1.17802526	     -1.86777263	    195.70011179	   -176.63415301	   -170.40210628	    -24.08993623	     13.76096614	      8.72653667	     -1.67435062	     -0.36999399	    353.14089232
      3.89000000	     -2.98153937	      0.01211223	   -366.56376786	      0.49925323	      0.95050679	     -0.59863974	     26.88778607	      0.98779893	     -9.85452994	    -68.84833179	      0.01211605	     -1.37769919	    194.62421791	   -176.19066114	   -170.81247553	    -23.30798948	     13.97097203	      8.68193204	     -1.71983082	     -0.09066402	    352.69977285
      3.90000000	     -2.99195292	     -0.24730439	   -366.88611302	      0.50739405	      0.95181909	     -0.59720102	     27.88201982	      1.01107899	    -10.78714316	    -67.74408840	      1.12511336	     -0.68241581	    193.57302757	   -175.75009858	   -171.20862335	    -22.53808584	     14.16965155	      8.64722957	     -1.76569695	      0.20561468	    352.23854572
      3.91000000	     -3.00920042	     -0.50645401	   -367.18359381	      0.51544819	      0.95297737	     -0.59571675	     28.80821385	      1.01202679	    -11.73365959	    -66.46828753	      2.12768193	      0.17718534	    192.54305554	   -175.32180917	   -171.58571456	    -21.78303947	     14.36848409	      8.61921119	     -1.81371718	      0.50774305	    351.76239586
      3.92000000	     -3.02880258	     -0.75186055	   -367.46106532	      0.52342912	      0.95397051	     -0.59419899	     29.66761068	      0.96814356	    -12.69245146	    -65.04742851	      3.00134155	      1.09933568	    191.53374424	   -174.92069520	   -171.94883983	    -21.05068894	     14.56806400	      8.59575972	     -1.86520171	      0.80400880	    351.28042676
      3.93000000	     -3.04505618	     -0.97523802	   -367.72534724	      0.53136128	      0.95480126	     -0.59263922	     30.45511324	      0.86661856	    -13.66126775	    -63.49957067	      3.73865835	      1.98933837	    190.53681132	   -174.55443863	   -172.30174370	    -20.34007129	     14.77179671	      8.57397193	     -1.92200488	      1.08324779	    350.80089746
      3.94000000	     -3.05169795	     -1.16759338	   -367.98904207	      0.53926456	      0.95546999	     -0.59102788	     31.16885083	      0.70150176	    -14.63158428	    -61.84620985	      4.33585194	      2.73110101	    189.54207224	   -174.23159143	   -172.65522448	    -19.64862427	     14.97339518	      8.55280532	     -1.98736046	      1.33695828	    350.34012465
      3.95000000	     -3.05036944	     -1.32251155	   -368.25452170	      0.54714783	      0.95596588	     -0.58935877	     31.81343877	      0.46540943	    -15.60844947	    -60.10433134	      4.80785347	      3.28727051	    188.55389939	   -173.95868976	   -173.01093017	    -18.98103978	     15.18053757	      8.52744414	     -2.05563223	      1.55633350	    349.90541955
      3.96000000	     -3.04010385	     -1.43620462	   -368.52954631	      0.55501899	      0.95628958	     -0.58762086	     32.39064449	      0.16332867	    -16.58577981	    -58.28653122	      5.16367166	      3.63800230	    187.56662067	   -173.73916638	   -173.37365660	    -18.33095711	     15.38961235	      8.49592799	     -2.12579004	      1.73774498	    349.50679722
      3.97000000	     -3.02170297	     -1.51079846	   -368.81839967	      0.56287767	      0.95644185	     -0.58580091	     32.90312370	     -0.19308916	    -17.56169376	    -56.40130617	      5.41256552	      3.80401398	    186.57528751	   -173.56981426	   -173.74416239	    -17.68975454	     15.61114291	      8.45844047	     -2.19626431	      1.88267472	    349.15346185
      3.98000000	     -2.98896237	     -1.54499009	   -369.12390264	      0.57072362	      0.95643608	     -0.58388769	     33.34422343	     -0.59403068	    -18.52772992	    -54.45244773	      5.59544700	      3.85210723	    185.57242746	   -173.45138020	   -174.14131870	    -17.05393886	     15.82047259	      8.40653221	     -2.27308070	      1.98865257	    348.84315948
      3.99000000	     -2.94639039	     -1.54857457	   -369.44320668	      0.57855357	      0.95627252	     -0.58187017	     33.71826408	     -1.02068542	    -19.48920698	    -52.44191137	      5.70672932	      3.77688959	    184.55803101	   -173.37285080	   -174.55320070	    -16.41619957	     16.02908740	      8.33856835	     -2.35244720	      2.06573575	    348.57480535
